<svg xmlns="http://www.w3.org/2000/svg" viewBox="0 0 200 200" width="200" height="200">
  <!-- Outer leaf shape -->
  <path d="M100 20 C140 20 175 55 175 100 C175 145 140 180 100 180 C60 180 25 145 25 100 C25 55 60 20 100 20 Z" fill="#1a4d2a"/>
  <!-- Inner leaf highlight -->
  <path d="M100 35 C132 35 158 61 158 100 C158 132 140 158 113 168 C126 148 130 128 122 108 C114 88 98 78 82 68 C90 52 100 35 100 35 Z" fill="#23673a"/>
  <!-- Center vein -->
  <line x1="100" y1="175" x2="100" y2="45" stroke="#e8f5ec" stroke-width="2.5" stroke-linecap="round"/>
  <!-- Side veins -->
  <line x1="100" y1="130" x2="68" y2="105" stroke="#e8f5ec" stroke-width="1.5" stroke-linecap="round" opacity="0.7"/>
  <line x1="100" y1="110" x2="130" y2="88" stroke="#e8f5ec" stroke-width="1.5" stroke-linecap="round" opacity="0.7"/>
  <line x1="100" y1="150" x2="75" y2="130" stroke="#e8f5ec" stroke-width="1.2" stroke-linecap="round" opacity="0.5"/>
  <line x1="100" y1="90" x2="128" y2="72" stroke="#e8f5ec" stroke-width="1.2" stroke-linecap="round" opacity="0.5"/>
</svg>
